<!--
Linecons - 48 outline icons.
http://dribbble.com/monstercritic
http://dribbble.com/shots/927536-Linecons-48-outline-icons
-->
<svg xmlns="http://www.w3.org/2000/svg" width="32" height="32" viewBox="0 0 32 32"><path d="M16 0c-6.744 0-14 2.033-14 6.5v19c0 4.465 7.256 6.5 14 6.5 6.743 0 14-2.035 14-6.5v-19c0-4.467-7.258-6.5-14-6.5zm12 25.5c0 2.484-5.373 4.5-12 4.5-6.628 0-12-2.016-12-4.5v-3.736c2.066 2.129 7.05 3.236 12 3.236s9.934-1.107 12-3.236v3.736zm0-6h-.004l.004.031c0 2.469-5.373 4.469-12 4.469s-12-2-12-4.469l.004-.031h-.004v-3.736c2.066 2.129 7.05 3.236 12 3.236s9.934-1.107 12-3.236v3.736zm0-6h-.004l.004.031c0 2.469-5.373 4.469-12 4.469s-12-2-12-4.469l.004-.031h-.004v-3.436c2.621 1.997 7.425 2.936 12 2.936s9.379-.939 12-2.936v3.436zm-12-2.5c-6.628 0-12-2.016-12-4.5 0-2.486 5.372-4.5 12-4.5 6.627 0 12 2.014 12 4.5 0 2.484-5.373 4.5-12 4.5z" /><circle cx="25" cy="26" r="1" /><circle cx="25" cy="20" r="1" /><circle cx="25" cy="14" r="1" /></svg>
