<!--
Linecons - 48 outline icons.
http://dribbble.com/monstercritic
http://dribbble.com/shots/927536-Linecons-48-outline-icons
-->
<svg xmlns="http://www.w3.org/2000/svg" width="32" height="32" viewBox="0 0 32 32"><g><path d="M22 9c-.062 2.675-2.07 4.934-2.07 4.934 0-4.976-3.93-8.934-3.93-8.934s-.053 2.962-2.043 5.948c-1.99-6.967-7.962-10.948-7.962-10.948 2.986 10.948-.995 14.93-.995 22.892 0 4.671 3.954 9.108 10 9.108 8.957 0 10.689-3.288 11.615-6.993 1.276-5.101-.635-11.031-4.615-16.007zm2.676 15.521c-.643 2.569-1.369 5.479-9.676 5.479-5.008 0-8-3.614-8-7.108 0-2.676.488-4.873 1.004-7.199.656-2.949 1.328-5.968 1.037-9.961 3.084 4.269 4.182 9.925 4.182 9.925s2.871-4.031 3.643-5.903c.591 1.203 1.134 5.246 1.134 9.246 0 0 2.656-2.188 4.648-5.478 2.098 3.762 2.854 7.695 2.028 10.999zM22.432 16.795l-.85.985c-1.053 1.228-2.049 2.392-4.708 3.73-.381-1.142-.727-2.399-.727-4.323v-1.709l-1.518 2.378c-.512.811-.936 1.483-1.568 2.376-.959-2.162-1.637-3.761-2.152-5.212l-.479-1.35-.52 1.51c-.66 1.921-1.285 3.735-1.285 8.444 0 .276.223.5.5.5.275 0 .5-.224.5-.5 0-3.609.359-5.396.84-6.941.52 1.322 1.176 2.825 2.037 4.75l.352.784.508-.692c.83-1.13 1.324-1.89 1.865-2.743.158 1.479.523 2.54.885 3.59l.182.528.506-.239c2.703-1.284 3.968-2.453 4.972-3.575.156 1.864-.09 3.904-.674 5.353-.104.256.021.547.277.65l.188.036c.197 0 .385-.118.463-.313.775-1.924 1.008-4.664.592-6.982l-.186-1.035z"/></g></svg>
