<!--
Linecons - 48 outline icons.
http://dribbble.com/monstercritic
http://dribbble.com/shots/927536-Linecons-48-outline-icons
-->
<svg xmlns="http://www.w3.org/2000/svg" width="32" height="32" viewBox="0 0 32 32"><g><path d="M25 13v-4c0-4.971-4.029-9-9-9s-9 4.029-9 9v4c-1.657 0-3 1.343-3 3v7c0 4.971 4.029 9 9 9h6c4.971 0 9-4.029 9-9v-7c0-1.658-1.344-3-3-3zm-16-4c0-3.866 3.134-7 7-7s7 3.134 7 7v4h-2v-3.998c0-2.762-2.238-5-5-5s-5 2.238-5 5v3.998h-2v-4zm11 0v4h-8v-4c0-2.209 1.791-4 4-4s4 1.791 4 4zm6 10v4c0 3.859-3.141 7-7 7h-6c-3.859 0-7-3.141-7-7v-7c0-.552.448-1 1-1h18c.551 0 1 .448 1 1v3zM16 19c-1.104 0-2 .895-2 2 0 .607.333 1.76.667 2.672.272.742.614 1.326 1.333 1.326.782 0 1.061-.578 1.334-1.316.338-.914.666-2.073.666-2.682 0-1.105-.896-2-2-2z"/></g></svg>
