<!--
Thank you for using The Noun Project. This icon is licensed under Creative
Commons Attribution and must be attributed as:

    Menu by David Vickhoff from The Noun Project
-->
<svg xmlns="http://www.w3.org/2000/svg" viewBox="0 0 100 100" height="100" width="100"><path fill-rule="evenodd" clip-rule="evenodd" d="M81.602 44.102h-66.84c-3.256 0-5.898 2.64-5.898 5.898s2.642 5.898 5.898 5.898h66.84c3.256 0 5.898-2.64 5.898-5.898s-2.642-5.898-5.898-5.898zm0 23.591h-66.84c-3.256 0-5.898 2.64-5.898 5.898 0 3.258 2.642 5.898 5.898 5.898h66.84c3.256 0 5.898-2.64 5.898-5.898 0-3.258-2.642-5.898-5.898-5.898zm-66.839-35.386h66.84c3.256 0 5.898-2.64 5.898-5.898 0-3.258-2.642-5.898-5.898-5.898h-66.84c-3.256 0-5.898 2.64-5.898 5.898 0 3.258 2.642 5.898 5.898 5.898z"/></svg>
