<!--
Linecons - 48 outline icons.
http://dribbble.com/monstercritic
http://dribbble.com/shots/927536-Linecons-48-outline-icons
-->
<svg xmlns="http://www.w3.org/2000/svg" width="32" height="32" viewBox="0 0 32 32"><path d="M31.543.16c-.166-.107-.355-.16-.543-.16-.193 0-.387.055-.555.168l-30 20c-.309.205-.479.566-.439.936.038.369.278.688.623.824l7.824 3.131 3.679 6.438c.176.309.503.5.857.504h.011c.351 0 .677-.186.857-.486l2.077-3.463 9.695 3.877c.119.048.244.071.371.071.17 0 .338-.043.49-.129.264-.148.445-.408.496-.707l5-30c.065-.393-.109-.787-.443-1.004zm-28.407 20.617l23.175-15.451-16.85 18.037-.266-.162-6.059-2.424zm7.053 3.289l-.007-.01 18.943-20.275-16.149 25.162-2.787-4.877zm15.028 5.543l-8.541-3.416c-.203-.08-.414-.107-.623-.119l13.152-20.388-3.988 23.923z"/></svg>
