<!--
Linecons - 48 outline icons.
http://dribbble.com/monstercritic
http://dribbble.com/shots/927536-Linecons-48-outline-icons
-->
<svg xmlns="http://www.w3.org/2000/svg" width="32" height="32" viewBox="0 0 32 32"><path d="M31.881 12.557c-.277-.799-.988-1.384-1.844-1.511l-8.326-1.238-3.619-7.514c-.381-.789-1.196-1.294-2.092-1.294-.896 0-1.711.505-2.092 1.294l-3.619 7.514-8.327 1.238c-.855.127-1.566.712-1.842 1.511-.275.801-.067 1.683.537 2.285l6.102 6.092-1.415 8.451c-.144.851.225 1.705.948 2.203.397.273.864.412 1.331.412.384 0 .769-.094 1.118-.281l7.259-3.908 7.26 3.908c.349.187.734.281 1.117.281.467 0 .934-.139 1.332-.412.723-.498 1.09-1.352.947-2.203l-1.416-8.451 6.104-6.092c.603-.603.81-1.485.537-2.285zm-8.293 6.806c-.512.51-.744 1.229-.627 1.934l1.416 8.451-7.26-3.906c-.348-.188-.732-.281-1.118-.281-.384 0-.769.094-1.117.281l-7.26 3.906 1.416-8.451c.118-.705-.114-1.424-.626-1.934l-6.102-6.092 8.326-1.24c.761-.113 1.416-.589 1.743-1.268l3.621-7.512 3.62 7.513c.328.679.982 1.154 1.742 1.268l8.328 1.24-6.102 6.091z"/></svg>
