<!--
Linecons - 48 outline icons.
http://dribbble.com/monstercritic
http://dribbble.com/shots/927536-Linecons-48-outline-icons
-->
<svg xmlns="http://www.w3.org/2000/svg" width="32" height="32" viewBox="0 0 32 32"><g><path d="M24.832 11.445c-.186-.278-.498-.445-.832-.445h-1c-.553 0-1 .447-1 1v6c0 .553.447 1 1 1h4c.553 0 1-.447 1-1v-1.5c0-.197-.059-.391-.168-.555l-3-4.5zm2.168 6.555h-4v-6h1l3 4.5v1.5zM31.496 15.336l-4-6c-.558-.837-1.492-1.336-2.496-1.336h-4v-2c0-1.654-1.346-3-3-3h-15c-1.654 0-3 1.346-3 3v11c0 1.654 1.346 3 3 3v3c0 1.654 1.346 3 3 3h1.142c.447 1.721 2 3 3.859 3 1.857 0 3.41-1.279 3.857-3h5.282c.447 1.721 2 3 3.859 3 1.857 0 3.41-1.279 3.857-3h1.144c1.654 0 3-1.346 3-3v-6c0-.594-.174-1.17-.504-1.664zm-28.496 2.664c-.552 0-1-.447-1-1v-11c0-.553.448-1 1-1h15c.553 0 1 .447 1 1v11c0 .553-.447 1-1 1h-15zm8.001 9c-1.105 0-2-.896-2-2s.895-2 2-2c1.104 0 2 .896 2 2s-.897 2-2 2zm12.999 0c-1.105 0-2-.896-2-2s.895-2 2-2c1.104 0 2 .896 2 2s-.896 2-2 2zm6-4c0 .553-.447 1-1 1h-1.143c-.447-1.721-2-3-3.857-3-1.859 0-3.412 1.279-3.859 3h-5.282c-.447-1.721-2-3-3.857-3-1.859 0-3.412 1.279-3.859 3h-1.143c-.552 0-1-.447-1-1v-3h13c1.654 0 3-1.346 3-3v-7h4c.334 0 .646.167.832.445l4 6c.109.164.168.358.168.555v6z"/></g></svg>
