<!--
Thank you for using The Noun Project. This icon is licensed under Creative
Commons Attribution and must be attributed as:

    Afro by Simon Child from The Noun Project
-->
<svg xmlns="http://www.w3.org/2000/svg" width="100" height="100" viewBox="0 0 100 100"><path d="M31.999 59.971c-.356 1.319-.558 2.823-.558 4.421 0 2.959.69 5.6 1.771 7.338 2.34 1.392 4.307 4.215 5.565 7.881 2.568-2.233 7.076-2.299 8.312-2.299h5.877000000000001c1.235 0 5.742.065 8.312 2.299 1.258-3.666 3.225-6.489 5.564-7.881 1.08-1.738 1.771-4.379 1.771-7.338 0-1.598-.201-3.102-.56-4.421l-.008-.027c-.326-1.338-.523-2.808-.523-4.453 0-1.507.155-2.929.427-4.186.094-.408.149-.822.149-1.262 0-2.861-2.157-5.181-4.818-5.181-1.38 0-2.617.625-3.51 1.634l-.124.146c-2.258 2.642-5.694 4.328-9.547 4.328h-.151c-3.851 0-7.288-1.687-9.547-4.328l-.123-.146c-.892-1.009-2.13-1.634-3.511-1.634-2.66 0-4.817 2.319-4.817 5.181 0 .36.037.703.103 1.038.306 1.311.479 2.812.479 4.409 0 1.646-.197 3.115-.523 4.453l-.01.028zm18.028 21.726l-.146-.001s-1.831.005-5.327.245c-3.493.24-2.991 4.707-2.493 6.682.383 1.511 1.678 3.045 3.059 3.316 2.802.37 3.848-.984 3.848-2.599 0-1.058.135-1.687-1.684-2.665-.687-.358-1.132-.938-1.089-1.834 1.177.196 2.463.304 3.808.304h.048c1.346 0 2.631-.107 3.809-.304.044.896-.402 1.476-1.09 1.834-1.817.979-1.682 1.607-1.682 2.665 0 1.614 1.045 2.969 3.847 2.599 1.381-.271 2.677-1.806 3.058-3.316.499-1.975 1.002-6.441-2.493-6.682-3.494-.24-5.327-.245-5.327-.245l-.146.001zm-22.221-24.128c-1.035 1.629-1.456 3.95-.994 6.438.603 3.244 2.537 5.877 4.816 6.918l-3.822-13.356zm40.672 13.185c2.126-1.14 3.898-3.667 4.468-6.746.433-2.32.095-4.496-.793-6.1l-3.675 12.846zm-65.41-32.12c0-21.107 21.012-38.217 46.932-38.217 25.919 0 46.931 17.11 46.931 38.217 0 16.064-12.171 29.812-29.411 35.467l-.75 2.62c-1.64 6.162-2.461 11.838-3.714 14.512-1.032 4.364-6.436 8.069-12.889 8.069l-.14-.001-.139.001c-6.455 0-11.856-3.705-12.89-8.069-1.252-2.674-2.073-8.35-3.713-14.512l-.744-2.6c-17.273-5.641-29.473-19.403-29.473-35.487zm34.04 24.501c.499-.494 1.988-1.79 4.125-2.088 2.394-.333 3.649 1.688 3.873 2.088h-7.998zm-1.955-3.59c1.141-1.392 3.199-2.401 5.605-2.57 1.942-.136 3.735.303 5.052 1.119l1.409 3.586c-1.683-1.59-4.551-2.709-7.667-2.803-1.658-.051-3.164.199-4.399.668zm29.451 0c-1.234-.469-2.739-.719-4.398-.668-3.116.094-5.984 1.213-7.668 2.803l1.409-3.586c1.316-.816 3.11-1.255 5.053-1.119 2.405.169 4.464 1.178 5.604 2.57zm-1.955 3.59h-7.997c.222-.4 1.479-2.421 3.872-2.088 2.138.298 3.626 1.594 4.125 2.088z"/></svg>
