<!--
Thank you for using The Noun Project. This icon is licensed under Creative
Commons Attribution and must be attributed as:

    Mustache by Fernando Vasconcelos from The Noun Project
-->
<svg xmlns="http://www.w3.org/2000/svg" width="100" height="100" viewBox="0 0 100 100"><path d="M99.423 52.5c-.152-.285-.498-.407-.796-.284-2.701 1.121-5.405 1.688-8.04 1.688-10.15 0-17.202-8.424-19.856-11.596-.438-.521-.753-.899-.954-1.098-2.246-2.735-6.975-4.72-11.241-4.72-3.633 0-6.535 1.022-8.536 2.901-1.999-1.879-4.902-2.901-8.535-2.901-4.267 0-8.995 1.985-11.202 4.677-.24.241-.556.619-.993 1.141-2.655 3.171-9.707 11.596-19.856 11.596h-.002c-2.634 0-5.339-.567-8.04-1.688-.295-.123-.643-.002-.796.284-.153.284-.067.64.201.821 9.823 6.664 19.837 10.189 28.96 10.189 6.523 0 12.556-1.832 16.988-5.16 1.251-.94 2.345-1.981 3.257-3.087 3.855 4.657 11.072 8.247 20.281 8.247 9.122 0 19.137-3.524 28.96-10.188.268-.182.355-.538.2-.822z"/></svg>
